<svg id="Layer_1" enable-background="new 0 0 480 480" height="512" viewBox="0 0 480 480" width="512" xmlns="http://www.w3.org/2000/svg"><path d="m437.588 68v116c0 13.25-10.75 24-24 24h-28v12c0 13.25-10.75 24-24 24h-154c-1.961 7.709-48.762 191.686-53.4 209.92-2.71 10.63-12.28 18.08-23.26 18.08h-39.09c-14.46 0-25.64-12.69-23.81-27.03 10.099-78.365 4.413-34.228 25.89-200.97h-19.5c-18.74 0-33.47-16.03-31.89-34.7l14.58-172c1.4-16.57 15.26-29.3 31.88-29.3h272.6c13.25 0 24 10.75 24 24v12h28c13.25 0 24 10.75 24 24z" fill="#d1e7ff"/><path d="m246.588 244v50.69c0 13.25-10.75 24-24 24h-34l19-74.69z" fill="#a2d0ff"/><path d="m437.588 68v116c0 13.25-10.75 24-24 24h-28v-164h28c13.25 0 24 10.75 24 24z" fill="#d1e7ff"/><path d="m171.228 386.93-17.04 66.99c-2.71 10.63-12.28 18.08-23.26 18.08h-39.09c-14.46 0-25.64-12.69-23.81-27.03l7.48-58.04z" fill="#b9dcff"/><path d="m207.588 244-12.55 49.33h-107.47l6.35-49.33z" fill="#b9dcff"/><path d="m384.976 37.507c-2.69 12.102-13.769 20.493-26.166 20.493h-219.822c-16.614 0-30.482 12.732-31.88 29.3l-13.28 156.7h-19.41c-18.74 0-33.47-16.03-31.89-34.7l14.58-172c1.4-16.57 15.26-29.3 31.88-29.3h272.6c15.051 0 26.866 13.855 23.388 29.507z" fill="#e8f3ff"/><path d="m123.588 8v236c-10.918 0-39.66 0-49.17 0-18.74 0-33.47-16.03-31.89-34.7l14.58-172c1.4-16.57 15.26-29.3 31.88-29.3z" fill="#b9dcff"/><path d="m123.588 8v53.95c-9.1 5-15.55 14.33-16.48 25.35l-11.101 130.991c-1.797 21.204-27.17 31.743-42.986 17.506-7.162-6.448-11.376-16.06-10.493-26.497l14.58-172c1.4-16.57 15.26-29.3 31.88-29.3z" fill="#d1e7ff"/><path d="m385.588 44h20v164h-20z" fill="#b9dcff"/><path d="m246.588 293.33c0 15.912-11.619 25.36-24 25.36h-34l6.45-25.36z" fill="#b9dcff"/><path d="m393.588 32v188c0 17.645-14.355 32-32 32h-147.78l-14.929 58.689h23.71c8.822 0 16-7.178 16-16v-15.689c0-4.418 3.582-8 8-8s8 3.582 8 8v15.689c0 17.645-14.355 32-32 32h-27.78l-32.866 129.2c-3.613 14.196-16.366 24.111-31.014 24.111h-39.095c-19.272 0-34.175-16.936-31.745-36.038l21.274-167.257c.559-4.382 4.557-7.482 8.946-6.927 4.383.558 7.483 4.563 6.927 8.945l-12.746 100.212h39.098c4.418 0 8 3.582 8 8s-3.582 8-8 8h-41.133l-6.493 51.046c-1.218 9.568 6.207 18.019 15.872 18.019h39.095c7.324 0 13.701-4.958 15.507-12.055l50.863-199.945h-122.885c-23.404 0-41.833-20.062-39.857-43.377l14.577-172c1.769-20.879 18.903-36.623 39.858-36.623 4.418 0 8 3.582 8 8s-3.582 8-8 8c-12.572 0-22.854 9.446-23.914 21.973l-14.577 172c-1.19 14.034 9.848 26.027 23.913 26.027h287.174c8.822 0 16-7.178 16-16v-188c0-8.822-7.178-16-16-16h-230v178c0 4.418-3.582 8-8 8s-8-3.582-8-8v-186c0-4.418 3.582-8 8-8h238c17.645 0 32 14.355 32 32zm20 4c-4.418 0-8 3.582-8 8s3.582 8 8 8c8.822 0 16 7.178 16 16v116c0 8.822-7.178 16-16 16-4.418 0-8 3.582-8 8s3.582 8 8 8c17.645 0 32-14.355 32-32v-116c0-17.645-14.355-32-32-32zm-206 63h102c4.418 0 8-3.582 8-8s-3.582-8-8-8h-102c-4.418 0-8 3.582-8 8s3.582 8 8 8zm0 57h55c4.418 0 8-3.582 8-8s-3.582-8-8-8h-55c-4.418 0-8 3.582-8 8s3.582 8 8 8z" fill="#2e58ff"/></svg>