<svg id="Layer_1" enable-background="new 0 0 512.43 512.43" height="512" viewBox="0 0 512.43 512.43" width="512" xmlns="http://www.w3.org/2000/svg" xmlns:xlink="http://www.w3.org/1999/xlink"><linearGradient id="SVGID_1_" gradientUnits="userSpaceOnUse" x1="256.215" x2="256.215" y1=".215" y2="512.215"><stop offset="0" stop-color="#2af598"/><stop offset="1" stop-color="#009efd"/></linearGradient><path d="m47.437 290.034c-31.386-48.532-47.222-91.138-47.222-127.32 0-49.773 13.724-91.349 39.688-120.232 24.502-27.256 59.416-42.267 98.312-42.267 65.407 0 99.529 29.424 116.636 54.107.465.67.919 1.34 1.364 2.009.445-.669.899-1.339 1.364-2.009 17.107-24.684 51.229-54.107 116.636-54.107 38.896 0 73.81 15.011 98.312 42.268 25.964 28.883 39.688 70.458 39.688 120.232 0 36.181-15.836 78.788-47.222 127.319l-30.496-26.483c24.876-39.445 37.717-73.523 37.717-100.836 0-75.561-37.551-122.5-98-122.5-38.613 0-66.794 12.413-83.76 36.893-11.086 15.996-13.78 31.917-14.24 35.253v2.354h-40v-2.289c-.517-3.611-3.458-20.411-15.145-36.599-17.06-23.631-44.937-35.613-82.855-35.613-60.449 0-98 46.939-98 122.5 0 27.313 12.841 61.392 37.717 100.836zm464.993 93.194-123.215-107.002v-86.011h-40v51.274l-93-80.763-256.215 222.502 26.228 30.202 38.987-33.857v132.643h40v-167.381l151-131.132 150 130.263v168.248h40v-133.51l39.987 34.726zm-236.215 3.987h40v-40h-40zm0 80h40v-40h-40zm-80-80h40v-40h-40zm0 80h40v-40h-40z" fill="url(#SVGID_1_)"/></svg>